<svg width="182" height="44" viewBox="0 0 182 44" fill="none" xmlns="http://www.w3.org/2000/svg">
<path d="M30.3562 22.3218L41.3086 28.5774C41.6162 28.7517 41.872 29.0045 42.05 29.31C42.228 29.6155 42.3218 29.9627 42.3218 30.3162C42.3218 30.6698 42.228 31.017 42.05 31.3224C41.872 31.6279 41.6162 31.8807 41.3086 32.055L24.3204 41.7882C23.7127 42.1391 23.0234 42.3238 22.3218 42.3238C21.6201 42.3238 20.9308 42.1391 20.3232 41.7882L3.33497 32.055C3.02739 31.8807 2.77155 31.6279 2.59355 31.3224C2.41556 31.017 2.32178 30.6698 2.32178 30.3162C2.32178 29.9627 2.41556 29.6155 2.59355 29.31C2.77155 29.0045 3.02739 28.7517 3.33497 28.5774L14.2874 22.3218" stroke="#69E584" stroke-width="3" stroke-linecap="round" stroke-linejoin="round"/>
<path d="M24.3204 25.7996C23.7127 26.1505 23.0234 26.3352 22.3218 26.3352C21.6201 26.3352 20.9308 26.1505 20.3232 25.7996L3.33497 16.0664C3.02739 15.8921 2.77155 15.6393 2.59355 15.3338C2.41556 15.0284 2.32178 14.6812 2.32178 14.3276C2.32178 13.9741 2.41556 13.6269 2.59355 13.3214C2.77155 13.0159 3.02739 12.7631 3.33497 12.5888L20.3232 2.85559C20.9308 2.50477 21.6201 2.32007 22.3218 2.32007C23.0234 2.32007 23.7127 2.50477 24.3204 2.85559L41.3086 12.5888C41.6162 12.7631 41.872 13.0159 42.05 13.3214C42.228 13.6269 42.3218 13.9741 42.3218 14.3276C42.3218 14.6812 42.228 15.0284 42.05 15.3338C41.872 15.6393 41.6162 15.8921 41.3086 16.0664L24.3204 25.7996Z" stroke="#69E584" stroke-width="3" stroke-linecap="round" stroke-linejoin="round"/>
<path d="M58.7166 34V9.27273H67.5305C69.4543 9.27273 71.0481 9.62287 72.3118 10.3232C73.5755 11.0234 74.5213 11.9813 75.1491 13.1967C75.777 14.4041 76.0909 15.7644 76.0909 17.2777C76.0909 18.799 75.773 20.1674 75.1371 21.3828C74.5092 22.5902 73.5594 23.5481 72.2876 24.2564C71.0239 24.9567 69.4342 25.3068 67.5185 25.3068H61.4574V22.1435H67.1804C68.3958 22.1435 69.3819 21.9342 70.1385 21.5156C70.8951 21.089 71.4505 20.5095 71.8047 19.777C72.1589 19.0445 72.3359 18.2114 72.3359 17.2777C72.3359 16.344 72.1589 15.5149 71.8047 14.7905C71.4505 14.0661 70.8911 13.4986 70.1264 13.0881C69.3698 12.6776 68.3717 12.4723 67.1321 12.4723H62.4474V34H58.7166ZM85.4059 34.4105C84.2307 34.4105 83.1682 34.1932 82.2184 33.7585C81.2686 33.3158 80.516 32.6759 79.9606 31.8388C79.4132 31.0017 79.1396 29.9754 79.1396 28.7599C79.1396 27.7135 79.3408 26.8523 79.7433 26.1761C80.1457 25.5 80.689 24.9647 81.3732 24.5703C82.0574 24.1759 82.8221 23.8781 83.6673 23.6768C84.5124 23.4756 85.3737 23.3227 86.2511 23.218C87.3619 23.0893 88.2634 22.9846 88.9556 22.9041C89.6478 22.8156 90.1509 22.6747 90.4648 22.4815C90.7788 22.2884 90.9357 21.9744 90.9357 21.5398V21.4553C90.9357 20.4008 90.6379 19.5838 90.0423 19.0043C89.4547 18.4247 88.5773 18.1349 87.4102 18.1349C86.1947 18.1349 85.2369 18.4046 84.5366 18.9439C83.8443 19.4751 83.3654 20.0668 83.0998 20.7188L79.707 19.946C80.1095 18.8191 80.6971 17.9096 81.4698 17.2173C82.2506 16.517 83.1481 16.0099 84.1623 15.696C85.1765 15.3741 86.243 15.2131 87.3619 15.2131C88.1024 15.2131 88.8872 15.3016 89.7163 15.4787C90.5534 15.6477 91.3342 15.9616 92.0586 16.4205C92.7911 16.8793 93.3907 17.5353 93.8576 18.3885C94.3245 19.2337 94.5579 20.3324 94.5579 21.6847V34H91.0323V31.4645H90.8874C90.654 31.9313 90.3039 32.3902 89.837 32.8409C89.3701 33.2917 88.7705 33.666 88.038 33.9638C87.3055 34.2616 86.4281 34.4105 85.4059 34.4105ZM86.1907 31.5128C87.1888 31.5128 88.042 31.3156 88.7504 30.9212C89.4667 30.5268 90.0101 30.0116 90.3803 29.3757C90.7586 28.7318 90.9478 28.0436 90.9478 27.3111V24.9205C90.819 25.0492 90.5695 25.17 90.1992 25.2827C89.837 25.3873 89.4225 25.4799 88.9556 25.5604C88.4888 25.6328 88.034 25.7012 87.5913 25.7656C87.1486 25.822 86.7783 25.8703 86.4805 25.9105C85.7802 25.9991 85.1403 26.148 84.5607 26.3572C83.9892 26.5665 83.5304 26.8684 83.1843 27.2628C82.8462 27.6491 82.6772 28.1643 82.6772 28.8082C82.6772 29.7017 83.0072 30.3778 83.6673 30.8366C84.3273 31.2874 85.1684 31.5128 86.1907 31.5128ZM99.3663 34V15.4545H102.856V18.4006H103.049C103.387 17.4025 103.983 16.6177 104.836 16.0462C105.697 15.4666 106.671 15.1768 107.758 15.1768C107.983 15.1768 108.249 15.1849 108.555 15.201C108.868 15.2171 109.114 15.2372 109.291 15.2614V18.7145C109.146 18.6742 108.889 18.63 108.518 18.5817C108.148 18.5253 107.778 18.4972 107.407 18.4972C106.554 18.4972 105.794 18.6783 105.126 19.0405C104.465 19.3946 103.942 19.8897 103.556 20.5256C103.17 21.1534 102.976 21.8698 102.976 22.6747V34H99.3663ZM122.168 15.4545V18.3523H112.038V15.4545H122.168ZM114.754 11.0114H118.365V28.5547C118.365 29.255 118.469 29.7822 118.678 30.1364C118.888 30.4825 119.157 30.7199 119.487 30.8487C119.825 30.9695 120.192 31.0298 120.586 31.0298C120.876 31.0298 121.129 31.0097 121.347 30.9695C121.564 30.9292 121.733 30.897 121.854 30.8729L122.506 33.8551C122.297 33.9356 121.999 34.0161 121.612 34.0966C121.226 34.1851 120.743 34.2334 120.164 34.2415C119.214 34.2576 118.328 34.0885 117.507 33.7344C116.686 33.3802 116.022 32.8329 115.515 32.0923C115.008 31.3518 114.754 30.4221 114.754 29.3033V11.0114ZM133.774 34.3743C132.035 34.3743 130.518 33.9759 129.222 33.179C127.926 32.3821 126.92 31.2673 126.203 29.8345C125.487 28.4018 125.129 26.7275 125.129 24.8118C125.129 22.888 125.487 21.2057 126.203 19.7649C126.92 18.3241 127.926 17.2053 129.222 16.4084C130.518 15.6115 132.035 15.2131 133.774 15.2131C135.512 15.2131 137.03 15.6115 138.326 16.4084C139.622 17.2053 140.628 18.3241 141.344 19.7649C142.06 21.2057 142.419 22.888 142.419 24.8118C142.419 26.7275 142.06 28.4018 141.344 29.8345C140.628 31.2673 139.622 32.3821 138.326 33.179C137.03 33.9759 135.512 34.3743 133.774 34.3743ZM133.786 31.3438C134.913 31.3438 135.846 31.0459 136.587 30.4503C137.328 29.8546 137.875 29.0618 138.229 28.0717C138.591 27.0817 138.772 25.991 138.772 24.7997C138.772 23.6165 138.591 22.5298 138.229 21.5398C137.875 20.5417 137.328 19.7408 136.587 19.1371C135.846 18.5334 134.913 18.2315 133.786 18.2315C132.651 18.2315 131.709 18.5334 130.961 19.1371C130.22 19.7408 129.669 20.5417 129.306 21.5398C128.952 22.5298 128.775 23.6165 128.775 24.7997C128.775 25.991 128.952 27.0817 129.306 28.0717C129.669 29.0618 130.22 29.8546 130.961 30.4503C131.709 31.0459 132.651 31.3438 133.786 31.3438ZM160.345 19.9822L157.073 20.5618C156.936 20.1432 156.719 19.7448 156.421 19.3665C156.132 18.9882 155.737 18.6783 155.238 18.4368C154.739 18.1953 154.115 18.0746 153.367 18.0746C152.344 18.0746 151.491 18.304 150.807 18.7628C150.123 19.2135 149.781 19.7971 149.781 20.5135C149.781 21.1333 150.01 21.6323 150.469 22.0107C150.928 22.389 151.668 22.6989 152.691 22.9403L155.637 23.6165C157.343 24.0109 158.615 24.6186 159.452 25.4396C160.289 26.2607 160.708 27.3272 160.708 28.6392C160.708 29.75 160.386 30.7401 159.742 31.6094C159.106 32.4706 158.216 33.1468 157.073 33.6378C155.938 34.1288 154.622 34.3743 153.125 34.3743C151.048 34.3743 149.354 33.9316 148.042 33.0462C146.73 32.1527 145.925 30.8849 145.627 29.2429L149.117 28.7116C149.334 29.6212 149.781 30.3094 150.457 30.7763C151.133 31.2351 152.014 31.4645 153.101 31.4645C154.284 31.4645 155.23 31.219 155.938 30.728C156.647 30.2289 157.001 29.6212 157.001 28.9048C157.001 28.3253 156.784 27.8383 156.349 27.4439C155.922 27.0495 155.266 26.7517 154.381 26.5504L151.242 25.8622C149.511 25.4678 148.231 24.84 147.402 23.9787C146.581 23.1174 146.171 22.0268 146.171 20.7067C146.171 19.612 146.477 18.6541 147.088 17.8331C147.7 17.0121 148.545 16.3722 149.624 15.9134C150.702 15.4465 151.938 15.2131 153.33 15.2131C155.335 15.2131 156.912 15.6477 158.063 16.517C159.214 17.3783 159.975 18.5334 160.345 19.9822ZM170.074 34.4105C168.899 34.4105 167.836 34.1932 166.886 33.7585C165.937 33.3158 165.184 32.6759 164.629 31.8388C164.081 31.0017 163.808 29.9754 163.808 28.7599C163.808 27.7135 164.009 26.8523 164.411 26.1761C164.814 25.5 165.357 24.9647 166.041 24.5703C166.725 24.1759 167.49 23.8781 168.335 23.6768C169.18 23.4756 170.042 23.3227 170.919 23.218C172.03 23.0893 172.931 22.9846 173.624 22.9041C174.316 22.8156 174.819 22.6747 175.133 22.4815C175.447 22.2884 175.604 21.9744 175.604 21.5398V21.4553C175.604 20.4008 175.306 19.5838 174.71 19.0043C174.123 18.4247 173.245 18.1349 172.078 18.1349C170.863 18.1349 169.905 18.4046 169.205 18.9439C168.512 19.4751 168.033 20.0668 167.768 20.7188L164.375 19.946C164.777 18.8191 165.365 17.9096 166.138 17.2173C166.919 16.517 167.816 16.0099 168.83 15.696C169.844 15.3741 170.911 15.2131 172.03 15.2131C172.77 15.2131 173.555 15.3016 174.384 15.4787C175.221 15.6477 176.002 15.9616 176.727 16.4205C177.459 16.8793 178.059 17.5353 178.526 18.3885C178.992 19.2337 179.226 20.3324 179.226 21.6847V34H175.7V31.4645H175.555C175.322 31.9313 174.972 32.3902 174.505 32.8409C174.038 33.2917 173.438 33.666 172.706 33.9638C171.973 34.2616 171.096 34.4105 170.074 34.4105ZM170.859 31.5128C171.857 31.5128 172.71 31.3156 173.418 30.9212C174.135 30.5268 174.678 30.0116 175.048 29.3757C175.427 28.7318 175.616 28.0436 175.616 27.3111V24.9205C175.487 25.0492 175.237 25.17 174.867 25.2827C174.505 25.3873 174.09 25.4799 173.624 25.5604C173.157 25.6328 172.702 25.7012 172.259 25.7656C171.817 25.822 171.446 25.8703 171.148 25.9105C170.448 25.9991 169.808 26.148 169.229 26.3572C168.657 26.5665 168.198 26.8684 167.852 27.2628C167.514 27.6491 167.345 28.1643 167.345 28.8082C167.345 29.7017 167.675 30.3778 168.335 30.8366C168.995 31.2874 169.836 31.5128 170.859 31.5128Z" fill="white"/>
</svg>
